<?xml version="1.0" encoding="UTF-8"?>
<svg xmlns="http://www.w3.org/2000/svg" xmlns:xlink="http://www.w3.org/1999/xlink" version="1.1" viewBox="0 0 1304.9 1304.9">
  <defs>
    <style>
      .cls-1 {
        fill: #fff;
      }

      .cls-2 {
        fill: url(#waveful_gradient);
      }
    </style>
    <linearGradient id="waveful_gradient" data-name="Waveful gradient" x1="652.4" y1="1303.3" x2="652.4" y2="-1.6" gradientTransform="translate(0 1303.3) scale(1 -1)" gradientUnits="userSpaceOnUse">
      <stop offset="0" stop-color="#448aff"/>
      <stop offset="1" stop-color="#03a9f4"/>
    </linearGradient>
  </defs>
  <g>
    <g id="Livello_1">
      <g id="Layer_3">
        <rect class="cls-2" y="0" width="1304.9" height="1304.9"/>
      </g>
      <g>
        <path class="cls-1" d="M512.2,258c-12.8,0-23.1,10.3-23.1,23.1v141.7c0,12.8,10.3,23.1,23.1,23.1h138.7c12.8,0,23.1-10.3,23.1-23.1,0-88.5-71.5-164.9-161.8-164.9Z"/>
        <path class="cls-1" d="M977.5,584.6h-52.4c-11.4,0-21.2-8.6-22.6-20-11.7-92.6-67.2-164.9-159.2-164.9h-197.1c-19.4,0-38.5,1.9-57.1,5.6-120.7,23.8-219.9,121.3-230.2,248.6-13.2,163.1,115.2,300.4,276.4,300.4h69.3c12.8,0,23.1-10.4,23.1-23.1s-10.4-23.1-23.1-23.1h-63c-50.5-.1-93.7-36.5-98.3-82.8-5.6-56.3,38.6-102.1,92-102.1h46.2v69.3c0,12.8,10.4,23.1,23.1,23.1,62.8,0,119.7-36.5,146.2-92.4h226.6c38.2,0,69.3-31.1,69.3-69.3s-31.1-69.3-69.3-69.3ZM789.6,538.4c12.8,0,23.1,10.4,23.1,23.1s-10.3,23.1-23.1,23.1-23.1-10.3-23.1-23.1,10.4-23.1,23.1-23.1Z"/>
        <path class="cls-1" d="M259,654c-13.2,163.1,115.2,300.4,276.4,300.4h48.5c10.7,52.7,57.4,92.4,113.2,92.4h46.2c17.2,0,28.3-18.1,20.7-33.4l-41.1-82.1,41.1-82.1c7.7-15.4-3.5-33.4-20.7-33.4h-46.2c-55.8,0-102.5,39.8-113.2,92.4h-42.2c-50.5-.1-93.7-36.5-98.3-82.8-5.6-56.3,38.6-102.1,92-102.1h46.2v69.3c0,12.8,10.4,23.1,23.1,23.1,62.8,0,119.7-36.5,146.2-92.4h226.6c38.2,0,69.3-31.1,69.3-69.3H259Z"/>
      </g>
    </g>
  </g>
</svg>