<?xml version="1.0" encoding="UTF-8"?>
<svg xmlns="http://www.w3.org/2000/svg" xmlns:xlink="http://www.w3.org/1999/xlink" viewBox="0 0 1304.89 1304.89" version="1.2" baseProfile="tiny-ps">
	<title>Waveful</title>
	<defs>
		<linearGradient id="linear-gradient" x1="652.44" x2="652.44" y2="1304.89" gradientUnits="userSpaceOnUse">
			<stop offset="0" stop-color="#448aff"></stop>
			<stop offset="1" stop-color="#03a9f4"></stop>
		</linearGradient>
	</defs>
	<g id="Layer_3">
		<rect width="1304.89" height="1304.89" fill="url(#linear-gradient)"></rect>
	</g>
	<g id="Layer_1">
		<path id="svg_1" fill="#ffffff" d="M286.84,451.48c68.3-133.09,214.28-223.85,364.68-220.14,132.69-3.4,262.8,67,338,175.13,18.44,27.09,37.71,56.86,36.67,91.17a88,88,0,0,1-49.13,85.19c-61.81,32-149.79-19.06-148.55-87.77,3.19,4.94,0,0,0,5.77a36.6,36.6,0,0,1-8.25,18.75,55.21,55.21,0,0,1-78,4.43c-1-.86-1.9-1.75-2.8-2.68-41.21-37.29-92.72-69.85-149.89-68.51-85.92-5.66-176.37,22.36-236.94,85.51a405.75,405.75,0,0,0-95.39,146.9,7.93,7.93,0,0,1-15.35-2.06A415,415,0,0,1,286.84,451.48Z" transform="translate(13.55 14.97)"></path>
		<path id="svg_2" fill="#ffffff" d="M438.28,541.83a349.37,349.37,0,0,1,170.9-35.23,6.8,6.8,0,0,1,2.27,13c-89.21,40-155.66,133.61-150.3,232.92,2.57,118.57,78.5,226.64,180.69,283.4a6.8,6.8,0,0,1-3.3,12.88c-161.12-5-310.08-119.5-368.18-268.88a51.53,51.53,0,0,1,0-36.88A390.87,390.87,0,0,1,437.87,542.14Z" transform="translate(13.55 14.97)"></path>
		<path id="svg_3" fill="#ffffff" d="M1035.78,774.44c2.16-1.44,4.84,0,4.12,2.06C996.32,913,875.07,1017.56,737.34,1046.2a29.57,29.57,0,0,1-19.89-2.47C624,994.49,550.36,900.64,537.38,793.19a4.53,4.53,0,0,1,4-5,4.47,4.47,0,0,1,2.44.43c100.85,45.53,189.34,15.55,283.5-34.62a14.31,14.31,0,0,1,17.51,3.2S914,882,1035.78,774.44Z" transform="translate(13.55 14.97)"></path>
		<path id="svg_4" fill="#ffffff" d="M828.51,715.31s-140.62,89.63-251.78,36.06a7.21,7.21,0,0,1,.93-13.29c45.22-13.7,168.12-59.24,178.94-135.68A45.31,45.31,0,0,0,837,637S811.61,688,828.51,715.31Z" transform="translate(13.55 14.97)"></path>
	</g>
</svg>